<?xml version="1.0" encoding="UTF-8"?>
<svg width="24px" height="24px" viewBox="0 0 24 24" version="1.1" xmlns="http://www.w3.org/2000/svg" xmlns:xlink="http://www.w3.org/1999/xlink">
    <!-- Generator: Sketch 52.5 (67469) - http://www.bohemiancoding.com/sketch -->
    <title>icon/announcement</title>
    <desc>Created with Sketch.</desc>
    <g id="icon/announcement" stroke="none" stroke-width="1" fill="none" fill-rule="evenodd" stroke-linecap="round" stroke-linejoin="round">
        <path d="M4.5,7.5 C3.396,7.5 2.5,8.396 2.5,9.5 C2.5,10.604 3.396,11.5 4.5,11.5 L4.5,7.5 Z M10.5,12.5 C15.5,12.5 20.5,15.5 20.5,15.5 L20.5,3.5 C20.5,3.5 15.5,6.5 10.5,6.5 L10.5,12.5 Z M10.5,6.5 L5.5,6.5 C4.948,6.5 4.5,6.948 4.5,7.5 L4.5,11.5 C4.5,12.052 4.948,12.5 5.5,12.5 L10.5,12.5 L10.5,6.5 Z M10.5,18.5 L8.5,18.5 L6.5,12.5 L10.5,12.5 L10.5,18.5 Z" stroke-width="2" id="lineart" stroke="#1a7575"></path>
    </g>
</svg>
