<?xml version="1.0" encoding="UTF-8"?>
<svg width="24px" height="24px" viewBox="0 0 24 24" version="1.1" xmlns="http://www.w3.org/2000/svg" xmlns:xlink="http://www.w3.org/1999/xlink">
    <!-- Generator: Sketch 52.5 (67469) - http://www.bohemiancoding.com/sketch -->
    <title>icon/help</title>
    <desc>Created with Sketch.</desc>
    <g id="icon/help" stroke="none" stroke-width="1" fill="none" fill-rule="evenodd" stroke-linecap="round" stroke-linejoin="round">
        <path d="M11.5,14.5 C11.224,14.5 11,14.724 11,15 C11,15.276 11.224,15.5 11.5,15.5 C11.776,15.5 12,15.276 12,15 C12,14.724 11.776,14.5 11.5,14.5 Z M11.5,12.7 L11.5,12.181 C11.5,11.826 11.735,11.518 12.075,11.416 C12.899,11.169 13.5,10.405 13.5,9.5 C13.5,8.419 12.581,7.5 11.5,7.5 C10.396,7.5 9.5,8.396 9.5,9.5 M20.5,11.5 C20.5,16.471 16.471,20.5 11.5,20.5 C6.529,20.5 2.5,16.471 2.5,11.5 C2.5,6.529 6.529,2.5 11.5,2.5 C16.471,2.5 20.5,6.529 20.5,11.5 Z" id="lineart" stroke="#1a7575" stroke-width="2"></path>
    </g>
</svg>
