<?xml version="1.0" encoding="UTF-8"?>
<svg width="24px" height="24px" viewBox="0 0 24 24" version="1.1" xmlns="http://www.w3.org/2000/svg" xmlns:xlink="http://www.w3.org/1999/xlink">
    <!-- Generator: Sketch 52.5 (67469) - http://www.bohemiancoding.com/sketch -->
    <title>icon/text-message</title>
    <desc>Created with Sketch.</desc>
    <g id="icon/text-message" stroke="none" stroke-width="1" fill="none" fill-rule="evenodd" stroke-linecap="round" stroke-linejoin="round">
        <path d="M17.5,10.5 L17.5,4.5 C17.5,3.948 17.052,3.5 16.5,3.5 L3.5,3.5 C2.948,3.5 2.5,3.948 2.5,4.5 L2.5,14.5 C2.5,15.052 2.948,15.5 3.5,15.5 L4.5,15.5 L4.5,17.5 L7.5,15.5 L10.5,15.5 M20.5,11.5 L20.5,17.5 C20.5,18.052 20.052,18.5 19.5,18.5 L18.5,18.5 L18.5,20.5 L15.5,18.5 L11.5,18.5 C10.948,18.5 10.5,18.052 10.5,17.5 L10.5,11.5 C10.5,10.948 10.948,10.5 11.5,10.5 L19.5,10.5 C20.052,10.5 20.5,10.948 20.5,11.5 Z" id="lineart" stroke-width="2" stroke="#1a7575"></path>
    </g>
</svg>
