<?xml version="1.0" standalone="no"?><!DOCTYPE svg PUBLIC "-//W3C//DTD SVG 1.1//EN" "http://www.w3.org/Graphics/SVG/1.1/DTD/svg11.dtd"><svg t="1631527056796" class="icon" viewBox="0 0 1024 1024" version="1.1" xmlns="http://www.w3.org/2000/svg" p-id="2224" xmlns:xlink="http://www.w3.org/1999/xlink" width="200" height="200"><defs><style type="text/css"></style></defs><path d="M0 64v341.333333A64 64 0 0 0 64 469.333333h341.333333A64 64 0 0 0 469.333333 405.333333v-341.333333A64 64 0 0 0 405.333333 0h-341.333333A64 64 0 0 0 0 64zM85.333333 85.333333h298.666667v298.666667H85.333333V85.333333zM0 618.666667v341.333333A64 64 0 0 0 64 1024h341.333333a64 64 0 0 0 64-64v-341.333333A64 64 0 0 0 405.333333 554.666667h-341.333333A64 64 0 0 0 0 618.666667z m85.333333 21.333333h298.666667v298.666667H85.333333v-298.666667zM554.666667 64v341.333333a64 64 0 0 0 64 64h341.333333A64 64 0 0 0 1024 405.333333v-341.333333A64 64 0 0 0 960 0h-341.333333A64 64 0 0 0 554.666667 64z m85.333333 21.333333h298.666667v298.666667h-298.666667V85.333333zM554.666667 618.666667v341.333333a64 64 0 0 0 64 64h341.333333a64 64 0 0 0 64-64v-341.333333a64 64 0 0 0-64-64h-341.333333a64 64 0 0 0-64 64z m85.333333 21.333333h298.666667v298.666667h-298.666667v-298.666667z" p-id="2225" fill="#0078D7"></path></svg>
