<svg t="1622091220767" class="icon" viewBox="0 0 1024 1024" version="1.1" xmlns="http://www.w3.org/2000/svg" p-id="827" width="200" height="200"><path d="M704 320a32 32 0 0 1-32-32V128h-320v160a32 32 0 0 1-64 0v-192A32 32 0 0 1 320 64h384a32 32 0 0 1 32 32v192a32 32 0 0 1-32 32zM704 960H320a32 32 0 0 1-32-32v-192a32 32 0 0 1 64 0V896h320v-160a32 32 0 0 1 64 0v192a32 32 0 0 1-32 32z" fill="#727272" p-id="828"></path><path d="M512 768a32 32 0 0 1-32-32v-448a32 32 0 0 1 64 0v448a32 32 0 0 1-32 32zM960 544h-256a32 32 0 0 1 0-64h256a32 32 0 0 1 0 64z" fill="#727272" p-id="829"></path><path d="M736 640a30.08 30.08 0 0 1-22.4-9.6l-96-96a30.72 30.72 0 0 1 0-44.8l96-96a31.36 31.36 0 0 1 44.8 44.8L685.44 512l72.96 73.6a30.72 30.72 0 0 1 0 44.8 30.08 30.08 0 0 1-22.4 9.6zM320 544H64a32 32 0 0 1 0-64h256a32 32 0 0 1 0 64z" fill="#727272" p-id="830"></path><path d="M288 640a30.08 30.08 0 0 1-22.4-9.6 30.72 30.72 0 0 1 0-44.8L338.56 512 265.6 438.4a31.36 31.36 0 0 1 44.8-44.8l96 96a30.72 30.72 0 0 1 0 44.8l-96 96a30.08 30.08 0 0 1-22.4 9.6z" fill="#727272" p-id="831"></path></svg>