<?xml version="1.0" standalone="no"?><!DOCTYPE svg PUBLIC "-//W3C//DTD SVG 1.1//EN" "http://www.w3.org/Graphics/SVG/1.1/DTD/svg11.dtd"><svg t="1632293687115" class="icon" viewBox="0 0 1024 1024" version="1.1" xmlns="http://www.w3.org/2000/svg" p-id="2381" xmlns:xlink="http://www.w3.org/1999/xlink" width="200" height="200"><defs><style type="text/css"></style></defs><path d="M66.224262 1001.169836l453.245902-604.327869 453.245902 604.327869z" fill="#3EBBDD" p-id="2382"></path><path d="M653.765246 984.382951h33.57377v33.57377h-33.57377z" fill="#000000" p-id="2383"></path><path d="M519.470164 396.841967l-162.54741 216.718689h179.334295v-50.008131h108.241836z" fill="#FFFFFF" p-id="2384"></path><path d="M981.109508 984.382951L657.94518 553.49718v-0.016787l-125.045508-166.710557c-6.328656-8.46059-20.530361-8.46059-26.859016 0l-162.54741 216.718689L57.83082 984.366164h-41.967213v33.57377h604.327868v-33.57377h-520.393442l265.534951-354.03541h170.940852a16.786885 16.786885 0 0 0 16.786885-16.786885V580.322623h83.061509l303.036852 404.043541h-218.229508v33.57377h302.163934v-33.57377h-41.984v0.016787z m-444.852459-437.617312a16.786885 16.786885 0 0 0-16.786885 16.786886v33.221245h-128.973639l128.973639-171.948065 91.454951 121.939934h-74.668066z" fill="#000000" p-id="2385"></path><path d="M267.666885 161.825574m-83.934426 0a83.934426 83.934426 0 1 0 167.868852 0 83.934426 83.934426 0 1 0-167.868852 0Z" fill="#FF8000" p-id="2386"></path><path d="M267.666885 262.546885c-55.547803 0-100.721311-45.173508-100.721311-100.721311s45.173508-100.721311 100.721311-100.721312 100.721311 45.173508 100.721312 100.721312-45.173508 100.721311-100.721312 100.721311z m0-167.868852c-37.031869 0-67.147541 30.115672-67.147541 67.147541s30.115672 67.147541 67.147541 67.147541 67.147541-30.115672 67.147541-67.147541-30.115672-67.147541-67.147541-67.147541z" fill="#000000" p-id="2387"></path><path d="M704.125902 749.366557h-67.147541a16.786885 16.786885 0 1 1 0-33.57377h50.360655v-33.573771a16.786885 16.786885 0 0 1 16.786886-16.786885h67.147541a16.786885 16.786885 0 1 1 0 33.573771h-50.360656v33.57377a16.786885 16.786885 0 0 1-16.786885 16.786885zM385.175082 363.268197h-67.147541a16.786885 16.786885 0 1 1 0-33.573771h50.360656v-16.786885a16.786885 16.786885 0 0 1 16.786885-16.786885h67.147541a16.786885 16.786885 0 1 1 0 33.57377h-50.360656v16.786885a16.786885 16.786885 0 0 1-16.786885 16.786886zM687.339016 245.76h-67.147541a16.786885 16.786885 0 1 1 0-33.57377h50.360656v-16.786886a16.786885 16.786885 0 0 1 16.786885-16.786885h67.147541a16.786885 16.786885 0 1 1 0 33.573771h-50.360655v16.786885a16.786885 16.786885 0 0 1-16.786886 16.786885zM435.535738 833.300984h-67.147541a16.786885 16.786885 0 0 1-16.786886-16.786886v-16.786885h-33.57377a16.786885 16.786885 0 1 1 0-33.57377h50.360656a16.786885 16.786885 0 0 1 16.786885 16.786885v16.786885h50.360656a16.786885 16.786885 0 1 1 0 33.573771zM905.568525 77.891148h-67.147541a16.786885 16.786885 0 0 1-16.786886-16.786886v-16.786885h-33.57377a16.786885 16.786885 0 1 1 0-33.57377h50.360656a16.786885 16.786885 0 0 1 16.786885 16.786885v16.786885h50.360656a16.786885 16.786885 0 1 1 0 33.573771zM200.519344 615.071475h-67.147541a16.786885 16.786885 0 0 1-16.786885-16.786885v-16.786885h-33.57377a16.786885 16.786885 0 1 1 0-33.573771h50.360655a16.786885 16.786885 0 0 1 16.786886 16.786886v16.786885h50.360655a16.786885 16.786885 0 1 1 0 33.57377zM972.716066 564.71082h-67.147541a16.786885 16.786885 0 0 1-16.786886-16.786886v-16.786885h-33.57377a16.786885 16.786885 0 1 1 0-33.57377h50.360656a16.786885 16.786885 0 0 1 16.786885 16.786885v16.786885h50.360656a16.786885 16.786885 0 1 1 0 33.573771z" fill="#000000" p-id="2388"></path></svg>
