   <svg id="dev-ninedot" fill="black" viewBox="0 0 1024 1024">
        <path
          d="M261.12 435.2h-40.96c-30.72 0-51.2 20.48-51.2 51.2v40.96c0 30.72 20.48 51.2 51.2 51.2h40.96c30.72 0 51.2-20.48 51.2-51.2v-40.96c0-25.6-20.48-51.2-51.2-51.2zM261.12 168.96h-40.96c-30.72 0-51.2 20.48-51.2 51.2v40.96c0 30.72 20.48 51.2 51.2 51.2h40.96c30.72 0 51.2-20.48 51.2-51.2v-40.96c0-30.72-20.48-51.2-51.2-51.2zM261.12 706.56h-40.96c-30.72 0-51.2 20.48-51.2 51.2v40.96c0 30.72 20.48 51.2 51.2 51.2h40.96c30.72 0 51.2-20.48 51.2-51.2v-40.96c0-30.72-20.48-51.2-51.2-51.2zM527.36 706.56h-40.96c-30.72 0-51.2 20.48-51.2 51.2v40.96c0 30.72 20.48 51.2 51.2 51.2h40.96c30.72 0 51.2-20.48 51.2-51.2v-40.96c0-30.72-20.48-51.2-51.2-51.2zM798.72 435.2h-40.96c-30.72 0-51.2 20.48-51.2 51.2v40.96c0 30.72 20.48 51.2 51.2 51.2h40.96c30.72 0 51.2-20.48 51.2-51.2v-40.96c0-25.6-20.48-51.2-51.2-51.2zM527.36 435.2h-40.96c-30.72 0-51.2 20.48-51.2 51.2v40.96c0 30.72 20.48 51.2 51.2 51.2h40.96c30.72 0 51.2-20.48 51.2-51.2v-40.96c0-25.6-20.48-51.2-51.2-51.2zM798.72 706.56h-40.96c-30.72 0-51.2 20.48-51.2 51.2v40.96c0 30.72 20.48 51.2 51.2 51.2h40.96c30.72 0 51.2-20.48 51.2-51.2v-40.96c0-30.72-20.48-51.2-51.2-51.2zM803.84 168.96h-40.96c-30.72 0-51.2 20.48-51.2 51.2v40.96c0 30.72 20.48 51.2 51.2 51.2h40.96c30.72 0 51.2-20.48 51.2-51.2v-40.96c0-30.72-20.48-51.2-51.2-51.2zM527.36 168.96h-40.96c-30.72 0-51.2 20.48-51.2 51.2v40.96c0 30.72 20.48 51.2 51.2 51.2h40.96c30.72 0 51.2-20.48 51.2-51.2v-40.96c0-30.72-20.48-51.2-51.2-51.2z"
        ></path>
      </svg>