<?xml version="1.0" standalone="no"?><!DOCTYPE svg PUBLIC "-//W3C//DTD SVG 1.1//EN" "http://www.w3.org/Graphics/SVG/1.1/DTD/svg11.dtd"><svg t="1631522697865" class="icon" viewBox="0 0 1024 1024" version="1.1" xmlns="http://www.w3.org/2000/svg" p-id="2219" xmlns:xlink="http://www.w3.org/1999/xlink" width="200" height="200"><defs><style type="text/css"></style></defs><path d="M905.16 392.38c-17.66 0.8-32.59 14.32-32.59 32.59v255l-23 13.2-94.07 54q-57.16 32.77-114.32 65.56l-98.07 56.23q-4.92 2.83-9.88 5.62v-317c0-17 0.37-34.13 0-51.17v-0.72c0-17.05-15-33.38-32.59-32.59S468 487.37 468 505.64v362.48l-78.17-48-108.12-66.32-93.88-57.61c-10-6.16-20-12.52-30.06-18.7v-22.35q0-49.3 0.1-98.62l0.13-118.86 0.11-103.27c0-16.67 0.39-33.39 0.05-50.06v-0.73c0-17.05-15-33.38-32.59-32.59S93 265.33 93 283.6v43.93q0 52.19-0.1 104.35l-0.13 123.61-0.11 101.68v37.08a35.39 35.39 0 0 0 16.18 29.88c12.12 8.1 24.95 15.31 37.37 22.93l86.72 53.22 105.27 64.65 93.24 57.21 50.41 30.93 2.31 1.42a30.57 30.57 0 0 0 25.76 2.92 32 32 0 0 0 17.3-4.29l39.16-22.46 94.08-53.95 114.32-65.56 98.06-56.23c16-9.19 32.29-18 48.1-27.59l0.66-0.38a32.76 32.76 0 0 0 16.15-28.14V425c0-17.07-14.99-33.4-32.59-32.62z" fill="#0071C3" p-id="2220"></path><path d="M485.36 119.86L522.61 139l89.48 45.91 108.75 55.79 93.63 48c15.16 7.78 30.16 16 45.54 23.37 0.22 0.1 0.43 0.22 0.65 0.33v-51.2l-37.22 20.87-88.92 49.85L627 392.2l-93 52.12c-15.09 8.46-30.49 16.54-45.34 25.42l-0.67 0.37H518l-38.42-21.17-92.7-51.08-111.79-61.58L178.46 283c-15.69-8.64-31.21-17.77-47.14-26-0.22-0.11-0.43-0.24-0.65-0.36v51.2L169 289.17l92-45L371.76 190l96.17-47c15.53-7.59 31.39-14.73 46.67-22.81 0.22-0.12 0.46-0.22 0.69-0.34 14-6.82 18.86-27.79 10.63-40.56-9.23-14.29-25.62-17.92-40.56-10.62L447.05 87.4l-92 45-110.8 54.16-96.17 47c-15.53 7.59-31.39 14.73-46.67 22.82l-0.68 0.33c-20.07 9.81-18.57 41 0 51.2l37.6 20.72L229 378.56l110 60.61 97 53.48c16.81 9.26 33.53 18.71 50.43 27.79 10 5.38 21.1 6.35 31.52 0.85 1.08-0.57 2.13-1.19 3.2-1.79l20.62-11.5 83-46.54 109.08-61.15 99.3-55.66 54.85-30.8 2.55-1.43c18.73-10.5 19.87-41 0-51.2l-37.25-19.11-89.45-45.91-108.74-55.79-93.64-48C546.3 84.58 531.2 76.61 515.93 69l-0.64-0.33c-13.79-7.07-32.81-4-40.56 10.63-7.17 13.56-4.1 33.01 10.63 40.56zM246.49 480.22l122.84 63.57M231.35 506.13l107.47 55.61 15.37 8c13.93 7.21 33.21 4.07 41.05-10.76 7.27-13.76 4.12-33.34-10.77-41L277 462.27l-15.37-7.95c-13.92-7.21-33.21-4.06-41 10.76-7.28 13.77-4.12 33.35 10.76 41.05z" fill="#FD9A16" p-id="2221"></path></svg>
