<?xml version="1.0" standalone="no"?><!DOCTYPE svg PUBLIC "-//W3C//DTD SVG 1.1//EN" "http://www.w3.org/Graphics/SVG/1.1/DTD/svg11.dtd"><svg t="1631522796212" class="icon" viewBox="0 0 1024 1024" version="1.1" xmlns="http://www.w3.org/2000/svg" p-id="3336" xmlns:xlink="http://www.w3.org/1999/xlink" width="200" height="200"><defs><style type="text/css"></style></defs><path d="M1023.910943 511.999898c5.11911 317.794367-194.116663 516.825376-511.91103 511.911029-317.794367 4.914346-516.825376-194.116663-511.91103-511.911029C-4.825463 194.20553 194.205546-4.825478 511.999913 0.088868c317.794367-4.914346 516.825376 194.116663 511.91103 511.91103z" fill="#3377FF" p-id="3337"></path><path d="M1022.477592 566.671996C1006.915497 340.40732 852.318366 201.16752 614.382119 204.85328c-254.112635-4.095288-413.624112 155.416189-409.528824 409.528824-3.890524 237.936247 135.554041 392.533378 361.613952 408.095473 268.036615-16.381153 439.629192-187.97373 456.010345-455.805581z" fill="#336DFF" p-id="3338"></path><path d="M1015.515602 629.944199C985.824762 491.523456 876.480566 407.160519 716.764325 409.617692c-190.635668-3.071466-310.218084 116.51095-307.146618 307.146618-2.457173 159.716241 81.905765 269.060437 220.121743 298.751277 211.112109-34.400421 351.375731-174.664043 385.776152-385.571388z" fill="#3364FF" p-id="3339"></path><path d="M997.701098 705.707031C964.734028 646.734881 902.076118 613.153517 819.146531 614.382104c-127.1587-2.047644-206.812056 77.605712-204.764412 204.764412-1.433351 82.929587 32.352777 145.587497 91.120163 178.554567a431.233852 431.233852 0 0 0 292.198816-291.994052z" fill="#335AFF" p-id="3340"></path><path d="M721.473906 809.113059H302.935448a61.429324 61.429324 0 0 1-61.429323-61.429323V412.074865L511.999913 238.025114l270.698553 174.049751v335.608871a61.429324 61.429324 0 0 1-61.22456 61.429323z" fill="#80AAFF" p-id="3341"></path><path d="M802.151085 476.37089a57.743564 57.743564 0 0 1-31.328955-9.214399L511.999913 300.887789l-258.617452 166.268702a58.153093 58.153093 0 0 1-85.38676-27.643195A59.381679 59.381679 0 0 1 192.56743 368.664809l288.308292-184.28797a57.948329 57.948329 0 0 1 62.657911 0l286.670176 184.28797a59.995973 59.995973 0 0 1 22.524086 77.400948 57.948329 57.948329 0 0 1-50.57681 30.305133zM511.999913 586.124615a77.400948 77.400948 0 0 1 77.400948 77.400947v145.587497h-154.597131V663.525562A77.400948 77.400948 0 0 1 511.999913 586.124615z" fill="#FFFFFF" p-id="3342"></path></svg>
