<?xml version="1.0" standalone="no"?><!DOCTYPE svg PUBLIC "-//W3C//DTD SVG 1.1//EN" "http://www.w3.org/Graphics/SVG/1.1/DTD/svg11.dtd"><svg t="1631522785629" class="icon" viewBox="0 0 1024 1024" version="1.1" xmlns="http://www.w3.org/2000/svg" p-id="2494" xmlns:xlink="http://www.w3.org/1999/xlink" width="200" height="200"><defs><style type="text/css"></style></defs><path d="M263.11 904V319.11c0-30.93 25.07-56 56-56H904c30.93 0 56 25.07 56 56V904c0 30.93-25.07 56-56 56H319.11c-30.93 0-56-25.07-56-56z" fill="#FFFFFF" p-id="2495"></path><path d="M960 415.56H263.11v-96.44c0-30.93 25.07-56 56-56H904c30.93 0 56 25.07 56 56v96.44z" fill="#E1F5FF" p-id="2496"></path><path d="M350.22 339.33m-21.78 0a21.78 21.78 0 1 0 43.56 0 21.78 21.78 0 1 0-43.56 0Z" fill="#FF4343" p-id="2497"></path><path d="M415.56 339.33m-21.78 0a21.78 21.78 0 1 0 43.56 0 21.78 21.78 0 1 0-43.56 0Z" fill="#FFD600" p-id="2498"></path><path d="M480.89 339.33m-21.78 0a21.78 21.78 0 1 0 43.56 0 21.78 21.78 0 1 0-43.56 0Z" fill="#65FF40" p-id="2499"></path><path d="M263.11 312.89c0-27.49 22.29-49.78 49.78-49.78h547.56v-49.78c0-27.49-22.29-49.78-49.78-49.78H213.33c-27.49 0-49.78 22.29-49.78 49.78v597.34c0 27.49 22.29 49.78 49.78 49.78h49.78V312.89z" fill="#8C9EFF" p-id="2500"></path><path d="M163.56 213.33c0-27.49 22.29-49.78 49.78-49.78H760.9v-49.78c0-27.49-22.29-49.78-49.78-49.78H113.78C86.29 64 64 86.29 64 113.78v597.34c0 27.49 22.29 49.78 49.78 49.78h49.78V213.33zM667.56 560.84h-246.4c-18.56 0-33.6 15.04-33.6 33.6 0 18.56 15.04 33.6 33.6 33.6h246.4c18.56 0 33.6-15.04 33.6-33.6 0-18.55-15.05-33.6-33.6-33.6zM801.96 747.51h-380.8c-18.56 0-33.6 15.04-33.6 33.6 0 18.56 15.04 33.6 33.6 33.6h380.8c18.56 0 33.6-15.04 33.6-33.6 0-18.56-15.05-33.6-33.6-33.6z" fill="#313FA0" p-id="2501"></path></svg>
